<mxfile host="65bd71144e">
    <diagram id="HjrGI4dzSM4AoUUvNlO9" name="第 1 页">
        <mxGraphModel dx="784" dy="383" grid="1" gridSize="10" guides="1" tooltips="1" connect="1" arrows="1" fold="1" page="1" pageScale="1" pageWidth="827" pageHeight="1169" math="0" shadow="0">
            <root>
                <mxCell id="0"/>
                <mxCell id="1" parent="0"/>
                <mxCell id="16" value="" style="group" parent="1" vertex="1" connectable="0">
                    <mxGeometry x="70" y="90" width="290" height="420" as="geometry"/>
                </mxCell>
                <mxCell id="2" value="" style="rounded=0;whiteSpace=wrap;html=1;movable=1;resizable=1;rotatable=1;deletable=1;editable=1;connectable=1;" parent="16" vertex="1">
                    <mxGeometry width="290" height="420" as="geometry"/>
                </mxCell>
                <mxCell id="5" value="" style="rounded=0;whiteSpace=wrap;html=1;movable=1;resizable=1;rotatable=1;deletable=1;editable=1;connectable=1;" parent="16" vertex="1">
                    <mxGeometry x="8.529411764705882" y="130" width="272.94117647058823" height="30" as="geometry"/>
                </mxCell>
                <mxCell id="6" value="" style="rounded=0;whiteSpace=wrap;html=1;movable=1;resizable=1;rotatable=1;deletable=1;editable=1;connectable=1;" parent="16" vertex="1">
                    <mxGeometry x="8.529411764705882" y="10" width="272.94117647058823" height="110" as="geometry"/>
                </mxCell>
                <mxCell id="3" value="User &lt;br&gt;Avatar" style="ellipse;whiteSpace=wrap;html=1;movable=1;resizable=1;rotatable=1;deletable=1;editable=1;connectable=1;" parent="16" vertex="1">
                    <mxGeometry x="17.06" y="40" width="70" height="70" as="geometry"/>
                </mxCell>
                <mxCell id="7" value="Username" style="text;html=1;strokeColor=none;fillColor=none;align=center;verticalAlign=middle;whiteSpace=wrap;rounded=0;movable=1;resizable=1;rotatable=1;deletable=1;editable=1;connectable=1;" parent="16" vertex="1">
                    <mxGeometry x="25.588235294117645" y="130" width="51.17647058823529" height="30" as="geometry"/>
                </mxCell>
                <mxCell id="8" value="" style="rounded=0;whiteSpace=wrap;html=1;movable=1;resizable=1;rotatable=1;deletable=1;editable=1;connectable=1;" parent="16" vertex="1">
                    <mxGeometry x="8.529411764705882" y="170" width="272.94117647058823" height="30" as="geometry"/>
                </mxCell>
                <mxCell id="10" value="" style="rounded=0;whiteSpace=wrap;html=1;movable=1;resizable=1;rotatable=1;deletable=1;editable=1;connectable=1;" parent="16" vertex="1">
                    <mxGeometry x="8.529411764705882" y="210" width="272.94117647058823" height="190" as="geometry"/>
                </mxCell>
                <mxCell id="11" value="" style="rounded=0;whiteSpace=wrap;html=1;movable=1;resizable=1;rotatable=1;deletable=1;editable=1;connectable=1;" parent="16" vertex="1">
                    <mxGeometry x="17.058823529411764" y="220" width="255.88235294117646" height="40" as="geometry"/>
                </mxCell>
                <mxCell id="12" value="Post Article" style="text;html=1;strokeColor=none;fillColor=none;align=center;verticalAlign=middle;whiteSpace=wrap;rounded=0;movable=1;resizable=1;rotatable=1;deletable=1;editable=1;connectable=1;" parent="16" vertex="1">
                    <mxGeometry x="25.588235294117645" y="225" width="85.29411764705883" height="30" as="geometry"/>
                </mxCell>
                <mxCell id="13" value="" style="rounded=0;whiteSpace=wrap;html=1;movable=1;resizable=1;rotatable=1;deletable=1;editable=1;connectable=1;" parent="16" vertex="1">
                    <mxGeometry x="17.058823529411764" y="270" width="255.88235294117646" height="40" as="geometry"/>
                </mxCell>
                <mxCell id="14" value="Manage Article" style="text;html=1;strokeColor=none;fillColor=none;align=center;verticalAlign=middle;whiteSpace=wrap;rounded=0;movable=1;resizable=1;rotatable=1;deletable=1;editable=1;connectable=1;" parent="16" vertex="1">
                    <mxGeometry x="25.588235294117645" y="275" width="85.29411764705883" height="30" as="geometry"/>
                </mxCell>
                <mxCell id="15" value="Quit Login" style="rounded=0;whiteSpace=wrap;html=1;movable=1;resizable=1;rotatable=1;deletable=1;editable=1;connectable=1;" parent="16" vertex="1">
                    <mxGeometry x="17.058823529411764" y="320" width="255.88235294117646" height="60" as="geometry"/>
                </mxCell>
            </root>
        </mxGraphModel>
    </diagram>
</mxfile>